<mxfile host="app.diagrams.net" modified="2024-01-13T06:34:51.809Z" agent="Mozilla/5.0 (Windows NT 10.0; Win64; x64) AppleWebKit/537.36 (KHTML, like Gecko) Chrome/120.0.0.0 Safari/537.36" etag="rzQem6YSrG8yjoCeFOjf" version="22.1.18" type="github">
  <diagram name="Page-1" id="do2uVUQQ4-ufc6y2rsXd">
    <mxGraphModel dx="836" dy="491" grid="1" gridSize="9" guides="1" tooltips="1" connect="1" arrows="1" fold="1" page="1" pageScale="1" pageWidth="850" pageHeight="1100" math="0" shadow="0">
      <root>
        <mxCell id="0" />
        <mxCell id="1" parent="0" />
        <object label="ground" id="plJWnkhM50jB4gWGoAsF-2">
          <mxCell parent="0" />
        </object>
        <mxCell id="plJWnkhM50jB4gWGoAsF-22" value="" style="shape=cube;whiteSpace=wrap;html=1;boundedLbl=1;backgroundOutline=1;darkOpacity=0.05;darkOpacity2=0.1;rotation=0;size=70;flipV=0;flipH=1;fillColor=#FFFF00;strokeColor=#b46504;" vertex="1" parent="plJWnkhM50jB4gWGoAsF-2">
          <mxGeometry x="162" y="297" width="210" height="81" as="geometry" />
        </mxCell>
        <object label="substrate" id="plJWnkhM50jB4gWGoAsF-3">
          <mxCell parent="0" />
        </object>
        <mxCell id="plJWnkhM50jB4gWGoAsF-24" value="" style="shape=cube;whiteSpace=wrap;html=1;boundedLbl=1;backgroundOutline=1;darkOpacity=0.05;darkOpacity2=0.1;flipV=0;flipH=1;size=63;fillColor=#FFE6CC;strokeColor=#d79b00;" vertex="1" parent="plJWnkhM50jB4gWGoAsF-3">
          <mxGeometry x="218" y="261" width="207" height="81" as="geometry" />
        </mxCell>
        <object label="patch" id="plJWnkhM50jB4gWGoAsF-4">
          <mxCell parent="0" />
        </object>
        <mxCell id="plJWnkhM50jB4gWGoAsF-25" value="" style="shape=cube;whiteSpace=wrap;html=1;boundedLbl=1;backgroundOutline=1;darkOpacity=0.05;darkOpacity2=0.1;flipH=1;size=36;shadow=0;fillColor=#FFFF00;strokeColor=#B09500;fontColor=#000000;" vertex="1" parent="plJWnkhM50jB4gWGoAsF-4">
          <mxGeometry x="369" y="234" width="153" height="45" as="geometry" />
        </mxCell>
        <mxCell id="plJWnkhM50jB4gWGoAsF-28" value="" style="shape=cube;whiteSpace=wrap;html=1;boundedLbl=1;backgroundOutline=1;darkOpacity=0.05;darkOpacity2=0.1;flipH=1;size=39;shadow=0;fillColor=#FFFF00;strokeColor=#B09500;fontColor=#000000;" vertex="1" parent="plJWnkhM50jB4gWGoAsF-4">
          <mxGeometry x="399" y="252" width="63" height="18" as="geometry" />
        </mxCell>
        <mxCell id="plJWnkhM50jB4gWGoAsF-34" value="" style="shape=cube;whiteSpace=wrap;html=1;boundedLbl=1;backgroundOutline=1;darkOpacity=0.05;darkOpacity2=0.1;size=54;flipH=1;strokeWidth=0;flipV=0;direction=west;" vertex="1" parent="plJWnkhM50jB4gWGoAsF-4">
          <mxGeometry x="399" y="252.5" width="27" height="17" as="geometry" />
        </mxCell>
        <mxCell id="plJWnkhM50jB4gWGoAsF-33" value="" style="shape=cube;whiteSpace=wrap;html=1;boundedLbl=1;backgroundOutline=1;darkOpacity=0.05;darkOpacity2=0.1;size=54;flipH=1;strokeWidth=0;rotation=0;" vertex="1" parent="plJWnkhM50jB4gWGoAsF-4">
          <mxGeometry x="431" y="253" width="29" height="17" as="geometry" />
        </mxCell>
        <mxCell id="plJWnkhM50jB4gWGoAsF-26" value="" style="shape=cube;whiteSpace=wrap;html=1;boundedLbl=1;backgroundOutline=1;darkOpacity=0.05;darkOpacity2=0.1;flipH=1;size=36;fillColor=#FFFF00;fontColor=#000000;strokeColor=#B09500;flipV=0;rotation=359;" vertex="1" parent="plJWnkhM50jB4gWGoAsF-4">
          <mxGeometry x="390.02" y="252.95" width="62.89" height="35" as="geometry" />
        </mxCell>
      </root>
    </mxGraphModel>
  </diagram>
</mxfile>
